<?xml version="1.0" encoding="UTF-8" standalone="no"?>
<svg
   xmlns:dc="http://purl.org/dc/elements/1.1/"
   xmlns:cc="http://creativecommons.org/ns#"
   xmlns:rdf="http://www.w3.org/1999/02/22-rdf-syntax-ns#"
   xmlns:svg="http://www.w3.org/2000/svg"
   xmlns="http://www.w3.org/2000/svg"
   xmlns:xlink="http://www.w3.org/1999/xlink"
   id="svg7"
   xml:space="preserve"
   viewBox="0 0 1024 1024"
   y="0px"
   x="0px"
   version="1.1"><metadata
     id="metadata13"><rdf:RDF><cc:Work
         rdf:about=""><dc:format>image/svg+xml</dc:format><dc:type
           rdf:resource="http://purl.org/dc/dcmitype/StillImage" /></cc:Work></rdf:RDF></metadata><defs
     id="defs11" /><g
     id="g3"
     transform="matrix(1.5,0,0,1.5,512,512)"><path
       style="fill:#fbf5eb"
       d="m 152.4,-201.9 c 46.6,26 86.9,68.5 97.2,116.9 10.4,48.3 -9.3,102.5 -32.2,150.3 -22.9,47.8 -49,89.1 -85.8,121.8 -36.8,32.8 -84.2,56.8 -135.5,62.2 -51.4,5.4 -106.6,-7.9 -148.6,-38.9 -42,-31 -70.8,-79.8 -87.5,-132.2 -16.8,-52.4 -21.5,-108.6 -2.2,-153.4 19.4,-44.8 62.9,-78.2 107.3,-105 44.4,-26.7 89.6,-46.8 138.7,-52 49.1,-5.3 102,4.2 148.6,30.3 z"
       id="path" /></g><animate
     fill="freeze"
     values="M120.2,-176.8C149.6,-144.2,162.8,-100.7,175.5,-57.9C188.3,-15,200.7,27.1,195.6,70.1C190.6,113,168.2,156.8,132.7,178C97.2,199.1,48.6,197.5,4.9,190.8C-38.8,184.1,-77.6,172.1,-115.3,151.7C-153,131.3,-189.7,102.4,-205.6,64.2C-221.6,26.1,-216.8,-21.4,-204,-67.9C-191.2,-114.4,-170.2,-160,-134.9,-190.6C-99.5,-221.3,-49.8,-237.2,-2.2,-234.2C45.5,-231.2,90.9,-209.5,120.2,-176.8Z; M152.4,-201.9C199,-175.9,239.3,-133.4,249.6,-85C260,-36.7,240.3,17.5,217.4,65.3C194.5,113.1,168.4,154.4,131.6,187.1C94.8,219.9,47.4,243.9,-3.9,249.3C-55.3,254.7,-110.5,241.4,-152.5,210.4C-194.5,179.4,-223.3,130.6,-240,78.2C-256.8,25.8,-261.5,-30.4,-242.2,-75.2C-222.8,-120,-179.3,-153.4,-134.9,-180.2C-90.5,-206.9,-45.3,-227,3.8,-232.2C52.9,-237.5,105.8,-228,152.4,-201.9Z; M101.9,-120.6C144.2,-109.5,199.1,-96,223.6,-62.7C248.2,-29.4,242.5,23.8,220.4,65.3C198.2,106.8,159.7,136.8,120.2,173.1C80.7,209.4,40.4,252.2,-4.7,258.7C-49.8,265.2,-99.5,235.3,-119,192.5C-138.5,149.7,-127.8,93.8,-144.4,46.1C-161,-1.6,-205.1,-41.3,-214.9,-88C-224.7,-134.6,-200.2,-188.3,-158.7,-199.6C-117.2,-210.9,-58.6,-180,-14.4,-160.1C29.8,-140.3,59.6,-131.6,101.9,-120.6Z; M113.1,-161.5C148.6,-129.9,180.8,-99.5,181.6,-66.3C182.3,-33.1,151.5,3.1,132.4,37.1C113.2,71.2,105.7,103.2,85.6,142.9C65.4,182.7,32.7,230.4,-3.9,235.8C-40.6,241.2,-81.1,204.3,-114.7,168.9C-148.3,133.5,-175,99.5,-198.1,57.5C-221.3,15.5,-240.9,-34.6,-221,-64.4C-201.2,-94.2,-141.7,-103.7,-98.3,-132.8C-54.9,-161.8,-27.4,-210.4,5.7,-218.2C38.8,-226.1,77.6,-193.1,113.1,-161.5Z; M102,-143.7C138.9,-113.5,180.3,-92.8,196.8,-59.7C213.4,-26.7,205.1,18.6,190.6,61.5C176.1,104.4,155.4,144.8,122.5,162.7C89.7,180.5,44.9,175.8,-1.2,177.4C-47.2,179,-94.4,187,-113.8,164.8C-133.1,142.5,-124.6,90.1,-143.6,43.8C-162.6,-2.6,-209.2,-42.9,-216.4,-85.7C-223.7,-128.5,-191.5,-173.9,-148.8,-202.2C-106.2,-230.5,-53.1,-241.7,-10.3,-227.6C32.5,-213.4,65,-173.9,102,-143.7Z; M120.2,-176.8C149.6,-144.2,162.8,-100.7,175.5,-57.9C188.3,-15,200.7,27.1,195.6,70.1C190.6,113,168.2,156.8,132.7,178C97.2,199.1,48.6,197.5,4.9,190.8C-38.8,184.1,-77.6,172.1,-115.3,151.7C-153,131.3,-189.7,102.4,-205.6,64.2C-221.6,26.1,-216.8,-21.4,-204,-67.9C-191.2,-114.4,-170.2,-160,-134.9,-190.6C-99.5,-221.3,-49.8,-237.2,-2.2,-234.2C45.5,-231.2,90.9,-209.5,120.2,-176.8Z"
     keySplines="0.9 0.1 0.1 0.9;0.9 0.1 0.1 0.9;0.9 0.1 0.1 0.9;0.9 0.1 0.1 0.9;0.9 0.1 0.1 0.9"
     calcMode="spline"
     keyTimes="0; 0.2; 0.4; 0.6; 0.8; 1"
     attributeName="d"
     repeatCount="indefinite"
     dur="20s"
     attributeType="XML"
     xlink:href="#path" /><path
     id="path5"
     transform="translate(153.6 243.2) scale(0.7)"
     fill="#d55045"
     d="m275.27 245.49c-0.32 0.01-1.22 0.07-2.01 0.11-0.79 0.05-1.98 0.14-2.63 0.21-0.66 0.07-1.88 0.22-2.71 0.33-0.84 0.12-2.23 0.34-3.08 0.5-0.86 0.16-2.21 0.44-3 0.62s-2.16 0.53-3.04 0.78c-0.88 0.24-2.47 0.73-3.53 1.09-1.07 0.35-2.56 0.89-3.33 1.2-0.77 0.3-2.03 0.82-2.8 1.16-0.76 0.34-2.09 0.97-2.93 1.39-0.86 0.43-2.09 1.08-2.76 1.45-0.66 0.36-1.72 0.98-2.35 1.36-0.64 0.39-1.71 1.07-2.39 1.52-0.67 0.45-1.47 0.99-1.76 1.19-0.3 0.21-1.18 0.87-1.98 1.46-0.79 0.6-1.93 1.51-2.54 2.02-0.61 0.5-1.65 1.4-2.3 1.99-0.66 0.59-1.87 1.75-2.69 2.58-0.82 0.82-2.01 2.08-2.64 2.79s-1.54 1.77-2.02 2.36c-0.49 0.59-1.3 1.62-1.8 2.3-0.51 0.68-1.23 1.66-1.6 2.19-0.36 0.52-1.03 1.52-1.47 2.21-0.45 0.7-1.07 1.71-1.39 2.26-0.32 0.54-0.79 1.37-1.06 1.84-0.26 0.48-0.86 1.63-1.32 2.55-0.46 0.93-1.07 2.2-1.35 2.84-0.28 0.63-0.76 1.77-1.06 2.54-0.31 0.77-0.78 2.03-1.05 2.79-0.28 0.77-0.66 1.96-0.87 2.63-0.2 0.68-0.52 1.79-0.71 2.47-0.18 0.68-0.48 1.88-0.65 2.67-0.18 0.79-0.44 2.05-0.57 2.79-0.14 0.75-0.34 2.02-0.46 2.84-0.11 0.81-0.26 2.01-0.33 2.67-0.07 0.65-0.17 1.78-0.22 2.5-0.06 0.75-0.1 2.78-0.1 4.72 0 1.91 0.04 3.99 0.1 4.73 0.05 0.72 0.15 1.87 0.22 2.55 0.07 0.67 0.2 1.76 0.29 2.42 0.09 0.65 0.28 1.84 0.41 2.63 0.14 0.79 0.42 2.19 0.62 3.12 0.21 0.93 0.58 2.42 0.83 3.33 0.24 0.9 0.75 2.56 1.13 3.69s0.99 2.81 1.36 3.73 0.96 2.33 1.32 3.12c0.36 0.8 1.04 2.19 1.51 3.09 0.46 0.91 1.13 2.14 1.48 2.75s0.97 1.65 1.38 2.31c0.41 0.65 1.09 1.7 1.52 2.34 0.43 0.63 1.31 1.85 1.95 2.71 0.64 0.85 1.57 2.04 2.05 2.62 0.49 0.59 1.32 1.55 1.84 2.14s1.54 1.68 2.26 2.42c0.73 0.73 1.95 1.92 2.72 2.62s1.93 1.72 2.59 2.27c0.65 0.54 1.65 1.35 2.21 1.78 0.57 0.43 1.51 1.13 2.1 1.55s1.6 1.11 2.25 1.54 1.81 1.15 2.59 1.62c0.77 0.46 1.88 1.1 2.47 1.42 0.59 0.31 1.59 0.84 2.24 1.16 0.64 0.32 1.78 0.86 2.53 1.2 0.76 0.34 2.08 0.9 2.94 1.25 0.87 0.34 2.2 0.84 2.96 1.11 0.77 0.26 2 0.67 2.75 0.9 0.75 0.22 2.07 0.59 2.93 0.81s2.17 0.53 2.91 0.69c0.75 0.16 2.14 0.41 3.08 0.57 0.95 0.16 2.52 0.38 3.49 0.5 0.98 0.11 2.08 0.22 2.45 0.25l0.68 0.06v14.77h-53.42c-46.67 0-53.49 0.02-53.99 0.12-0.32 0.07-0.85 0.26-1.19 0.42-0.45 0.22-0.78 0.47-1.2 0.89-0.37 0.37-0.67 0.77-0.84 1.12-0.14 0.3-0.32 0.78-0.38 1.07-0.09 0.38-0.13 1-0.13 2.29 0 0.97 0.04 2.6 0.08 3.62 0.05 1.01 0.14 2.62 0.21 3.57s0.2 2.46 0.29 3.37c0.09 0.9 0.24 2.21 0.33 2.91s0.23 1.78 0.32 2.39 0.3 1.85 0.45 2.75c0.16 0.9 0.47 2.55 0.7 3.66 0.22 1.1 0.67 3.04 0.98 4.31 0.31 1.26 0.81 3.15 1.11 4.19s0.85 2.79 1.21 3.9c0.37 1.11 0.91 2.68 1.2 3.49s0.9 2.4 1.35 3.53c0.45 1.12 1.19 2.87 1.64 3.89 0.45 1.01 1.22 2.67 1.7 3.66 0.49 1 1.23 2.46 1.65 3.26 0.42 0.79 1.05 1.93 1.38 2.54 0.34 0.61 1.11 1.93 1.72 2.94 0.6 1.01 1.5 2.47 2.01 3.25 0.5 0.77 1.39 2.11 1.98 2.97s1.67 2.36 2.39 3.33 1.74 2.3 2.26 2.96c0.52 0.65 1.49 1.83 2.15 2.63 0.67 0.79 1.59 1.86 2.05 2.38 0.47 0.52 1.61 1.76 2.56 2.76 0.94 1 2.48 2.56 3.42 3.46s2.17 2.06 2.73 2.58c0.57 0.51 1.66 1.47 2.43 2.14 0.77 0.66 2.27 1.9 3.33 2.75 1.07 0.85 2.62 2.04 3.45 2.65s2.1 1.52 2.83 2.02c0.72 0.5 1.81 1.23 2.42 1.64 0.61 0.4 1.77 1.14 2.59 1.64 0.81 0.51 2.21 1.35 3.12 1.87 0.9 0.52 2.16 1.22 2.79 1.56s1.61 0.86 2.18 1.15c0.56 0.3 1.84 0.93 2.83 1.4 1 0.48 2.48 1.16 3.3 1.52 0.83 0.37 2.47 1.06 3.66 1.53 1.19 0.48 3.1 1.2 4.24 1.61 1.14 0.4 2.89 1 3.9 1.31 1 0.31 2.55 0.78 3.43 1.03 0.88 0.24 2.57 0.69 3.76 0.98 1.18 0.3 3.07 0.73 4.19 0.95 1.11 0.23 2.76 0.55 3.67 0.7 0.9 0.16 2.4 0.4 3.33 0.53 0.92 0.13 2.51 0.34 3.53 0.45 1.02 0.12 2.79 0.29 3.94 0.38 1.16 0.08 2.91 0.2 3.9 0.24 1 0.05 3.35 0.09 5.22 0.09 1.88 0 4.19-0.04 5.14-0.09 0.94-0.04 2.26-0.11 2.91-0.16 0.66-0.05 1.82-0.14 2.59-0.21s2.17-0.22 3.12-0.33 2.6-0.34 3.66-0.5 2.82-0.45 3.9-0.65c1.08-0.21 2.73-0.54 3.66-0.74 0.92-0.21 2.53-0.59 3.57-0.86s2.59-0.68 3.45-0.93 2.28-0.68 3.16-0.96 2.44-0.8 3.45-1.16c1.02-0.36 2.82-1.04 4-1.51 1.19-0.47 3.05-1.25 4.15-1.74 1.09-0.48 3.08-1.42 4.42-2.08 1.33-0.66 3.09-1.56 3.9-2 0.82-0.45 2.09-1.16 2.84-1.59 0.74-0.44 2.03-1.21 2.86-1.73 0.84-0.51 2.1-1.32 2.82-1.78 0.71-0.47 1.91-1.29 2.67-1.82s2.08-1.49 2.94-2.13 2.3-1.75 3.21-2.48c0.9-0.72 2.31-1.89 3.12-2.59s2.01-1.76 2.67-2.36c0.65-0.59 2.13-2.01 3.28-3.15 1.14-1.14 2.7-2.73 3.45-3.54 0.76-0.82 1.83-2 2.39-2.63 0.55-0.64 1.49-1.75 2.09-2.47s1.63-2.01 2.3-2.87 1.72-2.27 2.34-3.12c0.62-0.86 1.51-2.14 1.99-2.84s1.29-1.94 1.81-2.75c0.52-0.82 1.35-2.16 1.84-3 0.5-0.84 1.34-2.3 1.87-3.24 0.53-0.95 1.56-2.93 2.3-4.4 0.73-1.47 1.7-3.52 2.16-4.56s1.16-2.68 1.55-3.65c0.4-0.98 1.02-2.6 1.39-3.62 0.38-1.02 0.95-2.66 1.27-3.66 0.33-0.99 0.87-2.75 1.2-3.9s0.79-2.84 1.01-3.74c0.23-0.9 0.56-2.3 0.74-3.12 0.18-0.81 0.46-2.14 0.62-2.95 0.16-0.82 0.4-2.15 0.54-2.96 0.13-0.81 0.33-2.13 0.45-2.92 0.11-0.79 0.3-2.27 0.41-3.28 0.11-1.02 0.28-2.81 0.37-3.99 0.09-1.17 0.2-3.02 0.25-4.1 0.05-1.09 0.08-2.66 0.08-3.5 0-1.28-0.02-1.61-0.17-2.13-0.09-0.34-0.3-0.88-0.47-1.19-0.19-0.38-0.51-0.79-0.92-1.2-0.45-0.45-0.78-0.7-1.23-0.92-0.34-0.16-0.9-0.35-1.25-0.42l-0.63-0.13h-106.46v-14.76l1.56-0.14c0.86-0.07 2.14-0.21 2.86-0.3 0.71-0.1 2.05-0.3 2.98-0.46 0.92-0.16 2.27-0.42 3-0.57 0.72-0.16 1.88-0.44 2.58-0.62s1.9-0.52 2.67-0.75 2.08-0.65 2.9-0.94c0.83-0.29 2.14-0.78 2.92-1.09s1.95-0.81 2.6-1.1c0.66-0.29 1.87-0.87 2.7-1.28s2.05-1.05 2.71-1.42 1.78-1.02 2.48-1.45 1.88-1.18 2.63-1.68c0.74-0.5 1.69-1.15 2.09-1.45 0.41-0.29 1.24-0.92 1.85-1.4 0.61-0.47 1.42-1.12 1.81-1.43 0.38-0.32 1.14-0.97 1.68-1.44 0.55-0.48 1.76-1.62 2.71-2.55 0.94-0.93 2.15-2.17 2.7-2.76 0.54-0.58 1.52-1.71 2.18-2.5s1.65-2.03 2.2-2.75c0.54-0.73 1.28-1.74 1.65-2.26 0.36-0.52 0.99-1.47 1.39-2.1 0.41-0.63 1.04-1.65 1.4-2.26 0.37-0.61 0.95-1.62 1.3-2.26 0.35-0.63 0.95-1.81 1.35-2.62 0.4-0.82 0.95-1.99 1.23-2.62 0.27-0.62 0.78-1.82 1.11-2.67 0.34-0.85 0.86-2.26 1.16-3.14 0.29-0.88 0.74-2.28 0.98-3.12 0.25-0.83 0.6-2.12 0.78-2.87 0.18-0.74 0.48-2.07 0.66-2.95 0.17-0.89 0.42-2.24 0.53-3.01 0.12-0.77 0.31-2.17 0.41-3.12 0.11-0.95 0.25-2.39 0.31-3.2 0.06-0.86 0.1-2.86 0.1-4.77 0-1.87-0.05-3.87-0.1-4.64-0.06-0.75-0.16-1.89-0.23-2.55-0.07-0.65-0.23-1.95-0.36-2.87-0.13-0.93-0.36-2.27-0.49-2.99-0.14-0.71-0.38-1.88-0.54-2.58-0.16-0.71-0.44-1.85-0.63-2.52-0.18-0.68-0.51-1.85-0.74-2.59-0.23-0.75-0.62-1.93-0.87-2.63-0.24-0.7-0.7-1.9-1-2.67-0.31-0.77-0.8-1.94-1.1-2.6s-0.95-2.01-1.44-3.01c-0.5-0.99-1.26-2.43-1.7-3.19s-1.17-1.98-1.62-2.7-1.19-1.85-1.64-2.51c-0.46-0.65-1.21-1.7-1.69-2.34-0.47-0.63-1.23-1.6-1.67-2.15-0.45-0.55-1.13-1.36-1.52-1.8-0.39-0.45-1.32-1.47-2.07-2.27-0.74-0.8-2.05-2.1-2.88-2.89-0.84-0.79-1.96-1.8-2.5-2.26-0.53-0.45-1.33-1.12-1.77-1.47-0.43-0.35-1.31-1.03-1.94-1.51-0.63-0.47-1.63-1.19-2.22-1.6s-1.62-1.09-2.3-1.52-1.84-1.14-2.59-1.58c-0.74-0.43-2.41-1.32-3.69-1.97-1.29-0.64-3.01-1.45-3.82-1.8-0.82-0.34-2.06-0.84-2.76-1.11s-1.9-0.7-2.67-0.95c-0.77-0.26-1.96-0.63-2.65-0.83-0.69-0.19-1.86-0.51-2.58-0.69-0.73-0.19-1.93-0.46-2.65-0.61-0.72-0.16-1.87-0.37-2.55-0.49-0.68-0.11-1.76-0.28-2.43-0.37-0.65-0.09-1.76-0.22-2.46-0.29s-1.81-0.16-2.47-0.21c-0.65-0.04-2.37-0.1-3.82-0.11l-0.01-0.01c-1.44-0.02-2.88-0.02-3.2 0zm2.05 9.41c0.14-0.01 1.23 0.02 2.44 0.07 1.2 0.04 2.79 0.13 3.53 0.2s1.79 0.19 2.33 0.25c0.54 0.07 1.54 0.22 2.21 0.34 0.68 0.11 1.69 0.29 2.25 0.41 0.56 0.11 1.69 0.37 2.51 0.57s2.18 0.57 3.01 0.83c0.84 0.25 2.17 0.69 2.96 0.97 0.79 0.29 2.01 0.76 2.71 1.05 0.7 0.3 1.87 0.81 2.61 1.15 0.73 0.35 1.94 0.95 2.67 1.34s1.98 1.1 2.77 1.58c0.79 0.47 2.07 1.28 2.83 1.8 0.77 0.52 1.84 1.28 2.39 1.69 0.54 0.41 1.35 1.04 1.8 1.4 0.46 0.37 1.4 1.17 2.1 1.79 0.7 0.61 1.93 1.78 2.74 2.59 0.81 0.8 1.97 2.04 2.59 2.74 0.61 0.7 1.42 1.64 1.78 2.09 0.36 0.46 1 1.27 1.41 1.82 0.42 0.55 1.1 1.51 1.53 2.14 0.42 0.62 1.01 1.51 1.29 1.96 0.29 0.45 0.83 1.36 1.21 2.01 0.39 0.66 1.09 1.97 1.57 2.92 0.49 0.95 1.11 2.24 1.38 2.87 0.28 0.63 0.69 1.62 0.91 2.18 0.23 0.56 0.62 1.61 0.87 2.32s0.63 1.84 0.83 2.5c0.2 0.67 0.51 1.79 0.69 2.49 0.19 0.7 0.46 1.88 0.62 2.63 0.16 0.74 0.36 1.8 0.45 2.34s0.23 1.39 0.3 1.89 0.19 1.61 0.28 2.46c0.09 0.86 0.21 2.6 0.26 3.87 0.08 1.79 0.08 2.8 0 4.49-0.05 1.19-0.15 2.78-0.22 3.52s-0.22 2-0.33 2.79-0.3 1.93-0.41 2.54c-0.11 0.6-0.33 1.68-0.49 2.39-0.16 0.72-0.47 1.97-0.7 2.8s-0.65 2.22-0.95 3.1c-0.29 0.87-0.77 2.19-1.06 2.94-0.3 0.74-0.76 1.85-1.02 2.45-0.27 0.6-0.82 1.76-1.24 2.59-0.41 0.83-1.01 1.96-1.32 2.52s-0.84 1.45-1.16 1.98-0.99 1.57-1.48 2.31c-0.5 0.74-1.39 2-1.99 2.79-0.61 0.8-1.63 2.08-2.27 2.85-0.65 0.76-2.14 2.36-3.32 3.54-1.17 1.18-2.59 2.53-3.14 3.02-0.56 0.48-1.54 1.29-2.18 1.8s-1.53 1.2-1.98 1.53c-0.44 0.32-1.36 0.97-2.05 1.43-0.69 0.47-1.77 1.17-2.4 1.55s-1.65 0.97-2.26 1.31-1.66 0.9-2.34 1.24-1.86 0.89-2.63 1.23-1.89 0.81-2.5 1.05-1.56 0.59-2.11 0.78c-0.54 0.2-1.67 0.56-2.5 0.81s-2.18 0.62-2.99 0.82c-0.81 0.21-1.94 0.46-2.51 0.58-0.57 0.11-1.59 0.3-2.26 0.41-0.68 0.12-1.86 0.28-2.63 0.38-0.76 0.09-1.59 0.18-1.82 0.21l-0.43 0.05v-32.86l5.23-3.76c2.88-2.07 7.4-5.31 10.05-7.21 2.64-1.9 6.17-4.43 7.84-5.63s4.93-3.53 7.23-5.18c2.67-1.91 4.4-3.21 4.77-3.58 0.41-0.39 0.68-0.75 0.89-1.17 0.16-0.32 0.35-0.82 0.42-1.11 0.07-0.28 0.12-0.76 0.12-1.06s-0.04-0.74-0.09-0.98-0.21-0.7-0.36-1.01c-0.15-0.32-0.46-0.79-0.69-1.04-0.23-0.26-0.66-0.62-0.95-0.81-0.29-0.18-0.82-0.43-1.16-0.54-0.47-0.16-0.82-0.22-1.34-0.22-0.39-0.01-0.91 0.04-1.16 0.1s-0.64 0.19-0.87 0.3c-0.23 0.1-6.99 4.89-15.03 10.63l-14.61 10.44-0.05-22.99-0.03-22.98-0.16-0.42c-0.08-0.22-0.27-0.62-0.41-0.89s-0.48-0.71-0.75-0.99c-0.3-0.3-0.73-0.62-1.08-0.8-0.32-0.17-0.8-0.37-1.06-0.43-0.27-0.07-0.82-0.13-1.22-0.13s-0.95 0.06-1.23 0.13-0.75 0.26-1.05 0.42c-0.3 0.15-0.74 0.47-0.98 0.71-0.24 0.23-0.58 0.64-0.75 0.91s-0.4 0.73-0.5 1.03l-0.19 0.54-0.01 33.47-0.03 33.47-0.35-0.33c-0.18-0.18-0.95-0.87-1.69-1.52-0.75-0.65-5.1-4.47-9.66-8.49s-9.02-7.94-9.9-8.71c-0.88-0.78-2.42-2.13-3.41-3.01-1-0.88-2.02-1.77-2.28-1.98-0.26-0.22-0.66-0.48-0.89-0.6s-0.7-0.28-1.04-0.37c-0.34-0.08-0.88-0.16-1.21-0.16-0.32 0-0.87 0.07-1.22 0.16s-0.86 0.29-1.14 0.44c-0.28 0.14-0.74 0.48-1.03 0.75-0.36 0.33-0.6 0.65-0.8 1.06-0.16 0.33-0.34 0.79-0.41 1.04s-0.12 0.81-0.12 1.24c0 0.44 0.05 0.99 0.12 1.27 0.07 0.27 0.24 0.71 0.38 0.99 0.13 0.27 0.38 0.66 0.55 0.87s7.83 6.97 17.04 15.03l16.73 14.65v5.37l0.01 5.36-0.35-0.04c-0.19-0.02-0.66-0.06-1.05-0.09-0.38-0.03-1.2-0.1-1.81-0.17-0.6-0.07-1.62-0.2-2.26-0.29-0.63-0.09-1.62-0.26-2.19-0.37-0.58-0.1-1.7-0.34-2.5-0.52-0.8-0.19-2.05-0.5-2.77-0.71-0.73-0.21-1.93-0.58-2.68-0.83-0.74-0.25-2.02-0.71-2.83-1.03s-2.22-0.92-3.13-1.34c-0.91-0.41-2.3-1.09-3.08-1.52-0.79-0.42-1.99-1.1-2.66-1.5-0.68-0.41-1.83-1.14-2.56-1.63-0.72-0.49-1.79-1.25-2.38-1.68-0.58-0.44-1.34-1.02-1.68-1.3-0.33-0.27-1.11-0.92-1.72-1.44s-1.86-1.69-2.78-2.59c-0.92-0.91-2.14-2.16-2.71-2.8-0.56-0.63-1.36-1.55-1.77-2.05s-1.15-1.46-1.66-2.14-1.32-1.82-1.8-2.54c-0.48-0.71-1.21-1.87-1.63-2.58-0.43-0.7-1.09-1.88-1.48-2.61-0.4-0.73-1.05-2.02-1.44-2.87-0.4-0.86-0.99-2.2-1.31-2.99-0.31-0.79-0.76-1.96-0.99-2.6-0.23-0.63-0.6-1.77-0.83-2.53s-0.58-2.04-0.78-2.83c-0.21-0.8-0.48-1.98-0.62-2.64-0.13-0.65-0.33-1.74-0.44-2.42-0.12-0.68-0.27-1.68-0.34-2.22s-0.18-1.56-0.24-2.26c-0.07-0.7-0.16-2.16-0.22-3.24-0.05-1.16-0.07-2.76-0.04-3.87 0.03-1.03 0.09-2.4 0.13-3.03 0.05-0.64 0.16-1.82 0.25-2.63 0.09-0.82 0.26-2.07 0.38-2.8 0.11-0.72 0.34-1.94 0.49-2.71 0.16-0.77 0.4-1.84 0.53-2.38 0.14-0.54 0.43-1.61 0.65-2.38s0.61-2.01 0.87-2.75c0.25-0.75 0.7-1.97 1-2.71 0.29-0.75 0.85-2.04 1.22-2.88 0.38-0.84 1.08-2.24 1.54-3.12 0.47-0.88 1.19-2.17 1.61-2.86 0.41-0.7 1.13-1.82 1.58-2.51 0.46-0.68 1.13-1.65 1.49-2.15 0.36-0.49 1.14-1.51 1.74-2.26 0.6-0.74 1.55-1.87 2.11-2.5 0.57-0.64 1.62-1.75 2.35-2.48 0.73-0.72 1.8-1.74 2.38-2.26 0.57-0.52 1.43-1.27 1.91-1.67 0.47-0.39 1.51-1.21 2.3-1.8s1.99-1.45 2.67-1.91c0.68-0.45 1.88-1.22 2.67-1.69s1.95-1.14 2.59-1.48c0.63-0.34 1.59-0.83 2.13-1.09s1.6-0.74 2.34-1.07c0.75-0.32 1.95-0.81 2.67-1.09 0.73-0.27 1.95-0.7 2.71-0.95 0.77-0.25 1.79-0.57 2.26-0.7 0.48-0.14 1.47-0.4 2.21-0.58s1.89-0.44 2.55-0.57 1.81-0.34 2.55-0.45c0.75-0.12 1.82-0.26 2.39-0.33 0.56-0.07 1.5-0.17 2.09-0.22s1.84-0.12 2.79-0.16c0.95-0.03 1.84-0.06 1.98-0.07h-0.01zm365.96 16.18c-1.5 0.02-3.08 0.1-4.74 0.24-0.87 0.07-1.7 0.17-2.48 0.29-0.78 0.13-1.41 0.29-1.87 0.48-0.48 0.18-0.72 0.66-0.72 1.45 0 0.28 0.02 0.55 0.05 0.8 0.18 0.92 0.53 1.39 1.04 1.39h4.71v31.63l-1.21 4.84c0.04 0.37 0.44 0.75 1.21 1.12 0.87 0.43 1.57 0.64 2.11 0.64 0.27 0 0.49-0.05 0.67-0.16l1.87-2.27c0.3 0.16 0.66 0.37 1.09 0.61 1.78 1.07 3.39 1.61 4.81 1.61 3.67 0 6.66-1.19 8.98-3.55 2.47-2.53 3.71-5.95 3.71-10.24v-0.21c0-4.17-1.02-7.5-3.07-9.99-0.96-1.18-2.12-2.09-3.47-2.73-1.34-0.62-2.97-0.94-4.89-0.94-1.95 0-4.15 0.73-6.6 2.2v-14.94c-0.04-1.51-0.44-2.27-1.2-2.27zm-213.5 2.08c-0.48 0-0.72 0.53-0.72 1.58 0.02 0.25 0.05 0.5 0.08 0.75 0.18 0.96 0.52 1.44 1.02 1.44h4.35c0.23 0 0.35 0.13 0.35 0.4v31.13c0 0.43-0.25 0.72-0.75 0.88-0.28 0.09-0.68 0.15-1.2 0.19-0.43 0.05-0.85 0.08-1.26 0.08-0.08 0-0.16-0.01-0.24-0.03h-0.08c-0.43 0-0.71 0.07-0.85 0.21-0.48 0.49-0.72 1.15-0.72 2.01v0.08c0 1 0.21 1.5 0.64 1.5h15.65c0.2 0 0.43-0.15 0.7-0.43 0.27-0.29 0.4-0.86 0.4-1.71 0-1.09-0.23-1.63-0.69-1.63h-5.96v-13.04c1.58 0 2.94-0.06 4.06-0.19l8.76 14.27c0.25 0.43 0.55 0.8 0.91 1.12 1.16 1.07 2.41 1.61 3.77 1.61h4.54c0.18 0 0.39-0.13 0.64-0.38 0.27-0.27 0.4-0.82 0.4-1.66 0-1.15-0.21-1.73-0.64-1.73-1.25 0-2.28-0.18-3.1-0.54-0.82-0.35-1.5-0.97-2.03-1.84l-7.48-12.08c5.18-1.89 7.78-5.52 7.78-10.9 0-3.44-1.22-6.14-3.66-8.12-2.43-1.96-5.7-2.95-9.81-2.97h-14.86zm141.08 0c-0.24 0.02-0.42 0.21-0.54 0.56-0.05 0.15-0.09 0.31-0.11 0.49-0.03 0.14-0.05 0.29-0.05 0.45 0 0.05 0.01 0.1 0.03 0.13 0 0.22 0.01 0.45 0.05 0.7 0.18 0.96 0.52 1.44 1.02 1.44h4.35c0.23 0 0.35 0.14 0.35 0.43v31.1c0 0.43-0.25 0.72-0.75 0.88-0.28 0.09-0.69 0.15-1.2 0.19-0.43 0.05-0.85 0.08-1.26 0.08-0.09 0-0.17-0.01-0.24-0.03h-0.08c-0.43 0-0.71 0.07-0.85 0.21-0.48 0.49-0.72 1.13-0.72 1.93v0.08c0 1.05 0.2 1.58 0.61 1.58h25.81l2.49-7.33c0.01-0.03 0.02-0.09 0.02-0.18 0-0.32-0.25-0.59-0.75-0.81-0.21-0.08-0.45-0.15-0.72-0.21-0.26-0.05-0.64-0.08-1.12-0.08-0.5 0-0.84 0.17-1.01 0.51l-2.06 3.98h-12.53v-32.33h4.81c0.62 0 0.93-0.63 0.93-1.9 0-1.24-0.22-1.87-0.67-1.87h-15.81zm-130.36 4.12c4.18 0 7.1 0.51 8.73 1.52 1.77 1.09 2.65 3.11 2.65 6.07v0.08c0 2.93-1.09 4.98-3.26 6.14-1.68 0.89-4.38 1.35-8.12 1.36v-15.17zm103.6 0.83c-2.1 0-3.26 0.49-3.47 1.47l-1.15 5.9c-0.02 0.21-0.11 0.39-0.29 0.53-0.45 0.41-1.77 0.62-3.96 0.62h-0.26c-0.29 0-0.56 0.19-0.81 0.59-0.23 0.39-0.34 1.56-0.34 3.52h5.07v15.77c0 4.93 1.83 7.4 5.48 7.4 2.09 0 4.28-0.61 6.57-1.82 0.34-0.16 0.51-0.5 0.51-1.04 0-0.5-0.15-0.98-0.45-1.44-0.14-0.22-0.32-0.39-0.54-0.51-0.19-0.14-0.39-0.21-0.58-0.21-0.22 0-0.61 0.1-1.18 0.32-0.55 0.19-1.5 0.29-2.83 0.29-1.18 0-1.77-1-1.77-2.99v-15.77h6.74c0.19 0 0.35-0.08 0.48-0.24 0.43-0.49 0.65-1.26 0.67-2.29 0-1.06-0.23-1.58-0.67-1.58h-7.22v-8.52zm-61.46 7.98c-3.74 0-6.84 1.12-9.3 3.34-2.71 2.46-4.06 5.88-4.06 10.27 0 4.18 1 7.56 2.99 10.15 1 1.28 2.22 2.28 3.66 2.99s3.12 1.07 5.03 1.07c3.97 0 7.13-1.18 9.48-3.53 2.5-2.49 3.74-5.98 3.74-10.47 0-4.03-1.01-7.3-3.05-9.83-2.11-2.66-4.92-3.99-8.41-3.99h-0.08zm32.98 0c-3.75 0-6.84 1.12-9.3 3.34-2.71 2.46-4.06 5.88-4.06 10.27 0 4.18 0.99 7.56 2.99 10.15 1 1.28 2.22 2.28 3.66 2.99s3.12 1.07 5.02 1.07c3.97 0 7.14-1.18 9.49-3.53 2.49-2.49 3.74-5.98 3.74-10.47 0-4.03-1.02-7.3-3.05-9.83-2.12-2.66-4.92-3.99-8.41-3.99h-0.08zm102.24 0c-1.67 0-3.22 0.13-4.62 0.38-0.81 0.14-1.6 0.34-2.38 0.59-0.77 0.25-1.46 0.58-2.08 0.98-0.61 0.41-1.1 0.91-1.48 1.48-0.37 0.57-0.56 1.17-0.56 1.81 0 0.66 0.09 1.21 0.27 1.66 0.61 1.46 1.74 2.19 3.39 2.19 1.06-0.02 1.92-0.37 2.6-1.04 0.32-0.32 0.59-0.71 0.8-1.15 0.18-0.45 0.27-0.96 0.27-1.55s-0.11-1.12-0.33-1.58h2.73c1.14 0 2.05 0.17 2.73 0.51 0.69 0.32 1.28 0.92 1.76 1.79 0.5 0.86 0.75 2.77 0.75 5.74h-6.6c-2.64 0-4.84 0.68-6.6 2.04-2.01 1.53-3.02 3.66-3.02 6.38v0.08c0 2.19 0.74 3.96 2.22 5.32 1.56 1.46 3.72 2.19 6.46 2.19 3.07 0 5.68-0.79 7.86-2.38 0.34 0.93 0.67 1.54 1.01 1.85 0.18 0.16 0.38 0.26 0.59 0.32 0.21 0.07 1.26 0.1 3.13 0.1 1.85 0 3.27-0.14 4.27-0.42 0.38-0.09 0.65-0.36 0.83-0.81 0.18-0.46 0.27-0.92 0.27-1.39 0-1.05-0.24-1.57-0.72-1.57h-4.49v-13.82c0-2.9-0.62-5.14-1.85-6.73-0.71-0.91-1.68-1.63-2.91-2.16-1.21-0.54-2.64-0.81-4.3-0.81zm62.83 0c-1.36 0-2.73 0.22-4.12 0.65-3.68 1.14-5.53 3.35-5.53 6.65 0 2.24 0.77 4.01 2.3 5.29 0.75 0.61 1.63 1.13 2.64 1.58 1.02 0.42 2.5 0.94 4.44 1.54 1.96 0.59 3.36 1.14 4.2 1.66 0.55 0.34 0.95 0.71 1.2 1.12 0.26 0.4 0.4 0.87 0.4 1.42s-0.13 1.06-0.38 1.52c-0.85 1.52-2.52 2.27-4.99 2.27h-3.05c0.07-0.21 0.12-0.76 0.14-1.65v-0.03c0-0.85-0.36-1.62-1.07-2.3-0.72-0.69-1.59-1.04-2.62-1.04-1.05 0-1.93 0.34-2.62 1.02-0.32 0.32-0.59 0.71-0.8 1.17-0.18 0.45-0.27 0.97-0.27 1.58 0 0.62 0.16 1.2 0.48 1.74 0.64 1.06 1.73 1.88 3.26 2.45 2.07 0.79 4.4 1.18 7 1.18 2.94 0 5.33-0.7 7.16-2.09 0.86-0.64 1.52-1.41 1.98-2.32 0.48-0.89 0.72-1.95 0.72-3.18 0-1.21-0.22-2.29-0.67-3.23-0.44-0.95-1.15-1.82-2.13-2.62s-3.19-1.77-6.63-2.91l-2.03-0.7c-2.49-0.85-3.74-1.97-3.74-3.36 0-1.05 0.63-2.02 1.9-2.89 0.69-0.5 1.76-0.75 3.2-0.75h2.65c-0.22 1.07-0.32 1.75-0.32 2.03 0 0.29 0.08 0.65 0.26 1.1 0.61 1.46 1.75 2.19 3.42 2.19 1.07-0.02 1.94-0.37 2.62-1.04 0.7-0.7 1.04-1.54 1.04-2.54v-0.14c0-1.81-1.06-3.21-3.18-4.19-0.92-0.43-1.97-0.73-3.15-0.91-1.14-0.18-2.38-0.27-3.71-0.27zm-198.83 4.12c0.88 0 1.74 0.19 2.6 0.56 2.81 1.23 4.23 4.26 4.24 9.09 0 2.88-0.56 5.21-1.68 7-1.23 1.95-2.97 2.93-5.21 2.93-2.17 0-3.87-0.83-5.1-2.51-0.61-0.82-1.09-1.85-1.45-3.1-0.33-1.26-0.5-2.8-0.5-4.62 0-1.8 0.21-3.31 0.64-4.54 0.44-1.25 1.01-2.23 1.68-2.94 0.68-0.71 1.42-1.2 2.22-1.47 0.82-0.27 1.67-0.4 2.56-0.4zm32.98 0c0.87 0 1.74 0.19 2.59 0.56 2.82 1.23 4.23 4.26 4.25 9.09 0 2.88-0.56 5.21-1.68 7-1.23 1.95-2.97 2.93-5.21 2.93-2.18 0-3.88-0.83-5.11-2.51-0.6-0.82-1.08-1.85-1.44-3.1-0.34-1.26-0.51-2.8-0.51-4.62 0-1.8 0.22-3.31 0.65-4.54 0.44-1.25 1-2.23 1.68-2.94s1.41-1.2 2.22-1.47 1.67-0.4 2.56-0.4zm135.6 0.53c1.67 0.02 3.1 0.62 4.27 1.79 0.66 0.68 1.21 1.59 1.66 2.73 0.44 1.18 0.67 2.73 0.67 4.68 0 1.94-0.24 3.55-0.7 4.83-1.16 3.24-3.44 4.86-6.84 4.86-1.66 0-3.33-0.59-5.02-1.79v-14.58c0.42-0.49 0.91-0.89 1.44-1.21 1.46-0.87 2.97-1.31 4.52-1.31zm-34.56 11.17h5.83v5.21c-2.14 1.78-4.33 2.67-6.58 2.67-0.57 0-1.11-0.07-1.63-0.24-1.74-0.53-2.61-1.85-2.61-3.95 0-1.12 0.61-2.11 1.84-2.97 0.68-0.48 1.73-0.72 3.15-0.72zm54.94 31.85v24.22c-2.47-3.22-5.57-4.82-9.29-4.82-5.13 0-9.03 1.95-11.71 5.85s-4.02 9.82-4.02 17.74v3.67c0.06 7.5 1.41 13.19 4.06 17.07 2.68 3.87 6.56 5.81 11.62 5.81 4.08 0 7.42-1.94 10.01-5.81l0.58 4.91h11.49v-68.64h-12.74zm89.2 0v24.22c-2.48-3.22-5.57-4.82-9.3-4.82-5.12 0-9.03 1.95-11.71 5.85s-4.02 9.82-4.02 17.74v3.67c0.06 7.5 1.42 13.19 4.07 17.07 2.68 3.87 6.55 5.81 11.62 5.81 4.08 0 7.42-1.94 10.01-5.81l0.58 4.91h11.48v-68.64h-12.73zm50.05 1.07c-2.09 0-3.76 0.63-5.01 1.88s-1.87 2.86-1.87 4.83c0 1.93 0.61 3.54 1.83 4.83 1.25 1.28 2.93 1.92 5.05 1.92 2.11 0 3.78-0.64 5-1.92 1.25-1.29 1.88-2.9 1.88-4.83 0-1.97-0.63-3.58-1.88-4.83s-2.92-1.88-5-1.88zm-357.99 1.61c-7.51 0-13.23 2.43-17.16 7.29-3.91 4.82-5.86 11.72-5.86 20.69v11.71c0.12 8.85 2.25 15.59 6.39 20.24 4.14 4.62 9.95 6.93 17.43 6.93 4.38 0 8.4-0.69 12.07-2.06 3.69-1.4 6.8-3.47 9.34-6.21v-26.86h-22.39v9.92h9.2v11.93l-1.16 0.81c-1.61 1.04-3.71 1.56-6.3 1.56-4.05 0-6.97-1.34-8.76-4.02-1.76-2.71-2.64-7.03-2.64-12.96v-11.8c0.06-5.66 0.9-9.78 2.51-12.38 1.61-2.59 4.18-3.88 7.73-3.88 2.92 0 5.06 0.76 6.43 2.28 1.37 1.49 2.24 4.3 2.6 8.44h12.78c-0.57-7.45-2.66-12.91-6.26-16.4-3.58-3.48-8.89-5.23-15.95-5.23zm51.48 16.72c-3.52 0-6.27 2.04-8.27 6.12l-0.36-5.23h-11.93v48.35h12.69v-31.95c1.22-3.04 3.56-4.56 7.02-4.56l4.2 0.36 0.13-12.51c-0.89-0.39-2.05-0.58-3.48-0.58zm26.32 0c-6.11 0-10.89 2.08-14.35 6.25-3.45 4.17-5.18 9.92-5.18 17.25v3.09c0 7.38 1.71 13.16 5.14 17.33 3.45 4.15 8.28 6.22 14.48 6.22 6.16 0 10.96-2.07 14.39-6.22 3.42-4.14 5.13-9.89 5.13-17.24v-3.09c0-7.39-1.72-13.17-5.18-17.34s-8.27-6.25-14.43-6.25zm95.72 0c-4.62 0-8.36 1.89-11.22 5.67l-0.36-4.78h-11.88v48.35h12.69v-35.12c1.28-2.36 3.07-3.53 5.36-3.53 2.06 0 3.49 0.62 4.29 1.87 0.83 1.23 1.25 3.21 1.25 5.95v30.83h12.69v-31.77c-0.24-11.65-4.51-17.47-12.82-17.47zm85.53 0c-6.23 0-11.01 2.07-14.34 6.21-3.34 4.14-5.01 10.02-5.01 17.65v3.84c0 7.21 1.82 12.75 5.45 16.63 3.64 3.87 8.7 5.81 15.2 5.81 3.45 0 6.65-0.66 9.6-1.97 2.95-1.34 5.2-3.08 6.75-5.23l-4.96-7.64c-2.83 2.89-6.36 4.33-10.59 4.33-2.92 0-5.08-0.82-6.48-2.45-1.4-1.67-2.19-4.29-2.37-7.87h25.16v-6.21c-0.06-7.63-1.62-13.38-4.69-17.25-3.07-3.9-7.64-5.85-13.72-5.85zm138.26 0c-4.62 0-8.35 1.89-11.21 5.67l-0.36-4.78h-11.89v48.35h12.69v-35.12c1.28-2.36 3.07-3.53 5.36-3.53 2.06 0 3.49 0.62 4.3 1.87 0.83 1.23 1.25 3.21 1.25 5.95v30.83h12.69v-31.77c-0.24-11.65-4.52-17.47-12.83-17.47zm-292.3 0.89v31.33c0 5.84 1.15 10.29 3.44 13.36 2.3 3.04 5.66 4.56 10.1 4.56 4.41 0 7.93-1.78 10.55-5.32l0.36 4.42h11.88v-48.35h-12.73v34.95c-1.28 2.5-3.37 3.75-6.26 3.75-3.07 0-4.63-2.35-4.69-7.06v-31.64h-12.65zm246.68 0v48.35h12.69v-48.35h-12.69zm-273.89 9.61c2.23 0 3.96 1.07 5.18 3.22 1.22 2.11 1.83 5.37 1.83 9.78l-0.04 5.32c-0.33 7.21-2.62 10.81-6.88 10.81-4.62 0-6.93-4.31-6.93-12.95v-3.18c0-4.41 0.6-7.67 1.79-9.78 1.22-2.15 2.9-3.22 5.05-3.22zm181.16 0c2.2 0 3.75 0.74 4.65 2.23 0.89 1.49 1.37 3.68 1.43 6.57v1.16h-12.65c0.18-3.48 0.76-6.01 1.74-7.59 1.02-1.58 2.62-2.37 4.83-2.37zm-45.85 0.09c2.5 0 4.38 1.19 5.63 3.57v22.08c-1.28 2.23-3.17 3.35-5.67 3.35-2.42 0-4.13-0.94-5.14-2.81-1.02-1.91-1.52-5.25-1.52-10.02v-3.35c0-4.79 0.53-8.13 1.61-10.01 1.07-1.87 2.77-2.81 5.09-2.81zm89.2 0c2.5 0 4.38 1.19 5.63 3.57v22.08c-1.28 2.23-3.18 3.35-5.68 3.35-2.41 0-4.12-0.94-5.14-2.81-1.01-1.91-1.52-5.25-1.52-10.02v-3.35c0-4.79 0.54-8.13 1.61-10.01 1.08-1.87 2.77-2.81 5.1-2.81zm-180.45 46.5v68.64h12.69v-68.64h-12.69zm98.36 1.07c-2.09 0-3.76 0.63-5.01 1.88s-1.88 2.86-1.88 4.83c0 1.93 0.61 3.54 1.84 4.82 1.25 1.28 2.93 1.92 5.05 1.92 2.11 0 3.78-0.64 5-1.92 1.25-1.28 1.88-2.89 1.88-4.82 0-1.97-0.63-3.58-1.88-4.83s-2.92-1.88-5-1.88zm-400.19 0.64h4.73 4.72v13.87l0.27 0.05c0.14 0.02 0.75 0.09 1.36 0.16 0.6 0.08 1.6 0.23 2.22 0.34 0.61 0.11 1.73 0.35 2.47 0.54 0.75 0.18 1.9 0.51 2.56 0.73 0.66 0.23 1.7 0.61 2.3 0.87 0.6 0.25 1.53 0.68 2.05 0.94 0.51 0.27 1.35 0.73 1.84 1.03 0.5 0.3 1.32 0.84 1.83 1.2 0.51 0.37 1.23 0.92 1.6 1.23 0.38 0.32 1.14 1.02 1.69 1.57 0.56 0.55 1.32 1.37 1.69 1.81 0.37 0.45 0.89 1.13 1.17 1.51 0.27 0.39 0.73 1.07 1.01 1.51 0.28 0.45 0.72 1.23 0.98 1.74s0.6 1.22 0.75 1.58 0.4 0.99 0.54 1.39l0.26 0.74 1.06 0.19c0.58 0.1 1.39 0.29 1.8 0.4 0.41 0.12 1.09 0.34 1.52 0.5s1.19 0.5 1.68 0.74c0.5 0.25 1.37 0.76 1.93 1.14 0.57 0.38 1.4 1 1.86 1.38 0.45 0.38 1.11 0.99 1.45 1.36 0.35 0.37 0.91 1.04 1.25 1.49s0.84 1.2 1.12 1.66c0.27 0.46 0.66 1.19 0.87 1.62s0.52 1.17 0.7 1.64c0.18 0.48 0.47 1.42 0.64 2.11 0.18 0.68 0.39 1.75 0.49 2.38 0.09 0.63 0.17 1.27 0.17 1.44v0.29l0.84 0.19c0.46 0.1 1.44 0.38 2.17 0.62 0.74 0.24 1.83 0.68 2.44 0.97s1.44 0.75 1.83 1c0.4 0.26 1.04 0.72 1.42 1.01 0.39 0.3 1.23 1.08 1.88 1.74 0.64 0.66 1.47 1.55 1.82 1.99 0.36 0.45 0.87 1.13 1.14 1.52 0.26 0.4 0.7 1.13 0.98 1.63 0.28 0.49 0.69 1.33 0.91 1.84 0.22 0.52 0.57 1.48 0.78 2.12 0.21 0.65 0.49 1.7 0.62 2.35 0.13 0.64 0.29 1.51 0.35 1.94s0.1 1.54 0.1 2.47c0.01 1.47-0.02 1.77-0.18 2.41-0.1 0.4-0.32 0.99-0.49 1.31-0.2 0.4-0.51 0.8-0.96 1.25-0.51 0.52-0.8 0.74-1.28 0.96-0.34 0.16-0.81 0.34-1.05 0.38-0.24 0.05-0.64 0.09-0.9 0.09s-0.71-0.05-1-0.12-0.78-0.26-1.11-0.43c-0.38-0.2-0.78-0.5-1.17-0.89-0.42-0.43-0.67-0.76-0.87-1.2-0.16-0.33-0.35-0.89-0.42-1.23-0.08-0.36-0.13-1.05-0.13-1.57s-0.04-1.34-0.09-1.83c-0.05-0.5-0.18-1.36-0.29-1.93-0.11-0.56-0.35-1.45-0.52-1.98-0.18-0.52-0.5-1.32-0.73-1.76-0.22-0.45-0.6-1.09-0.84-1.42-0.23-0.33-0.69-0.88-1.01-1.22s-0.81-0.78-1.09-0.98-0.85-0.53-1.28-0.72c-0.42-0.2-1.04-0.45-1.38-0.54s-0.95-0.23-1.36-0.3c-0.4-0.07-1.46-0.15-2.34-0.17-1.23-0.03-1.8-0.01-2.45 0.09-0.48 0.07-1.22 0.25-1.67 0.41-0.44 0.15-1.11 0.45-1.48 0.68-0.36 0.22-0.92 0.63-1.23 0.92-0.31 0.28-0.78 0.85-1.05 1.26-0.28 0.4-0.65 1.05-0.83 1.43s-0.46 1.07-0.61 1.54c-0.16 0.47-0.38 1.26-0.49 1.75s-0.26 1.32-0.33 1.84c-0.08 0.52-0.17 1.73-0.2 2.71-0.05 1.49-0.09 1.84-0.24 2.24-0.09 0.26-0.27 0.65-0.39 0.85-0.12 0.21-0.44 0.59-0.71 0.86-0.34 0.34-0.72 0.59-1.24 0.85-0.48 0.24-0.99 0.42-1.4 0.5-0.5 0.09-0.8 0.1-1.28 0.04-0.34-0.04-0.77-0.13-0.96-0.2-0.18-0.06-0.53-0.22-0.78-0.34-0.24-0.13-0.71-0.49-1.03-0.81-0.37-0.37-0.68-0.78-0.85-1.11-0.15-0.3-0.32-0.68-0.38-0.87-0.07-0.18-0.16-0.71-0.2-1.18-0.06-0.57-0.06-1.41 0-2.52 0.05-0.91 0.14-2.1 0.21-2.64 0.07-0.53 0.2-1.36 0.29-1.84 0.09-0.47 0.3-1.35 0.45-1.95 0.16-0.6 0.44-1.5 0.62-2.01 0.19-0.51 0.61-1.48 0.94-2.15 0.33-0.68 0.86-1.63 1.17-2.1 0.32-0.48 0.87-1.22 1.24-1.65 0.36-0.43 0.98-1.08 1.38-1.44s0.99-0.86 1.3-1.12c0.32-0.25 0.89-0.66 1.28-0.91 0.38-0.24 1-0.6 1.38-0.79s0.96-0.45 1.3-0.58 1-0.34 1.47-0.46l0.85-0.22-0.05-0.26c-0.02-0.14-0.14-0.62-0.25-1.07-0.12-0.45-0.32-1.1-0.45-1.44s-0.43-0.98-0.66-1.41c-0.23-0.44-0.7-1.19-1.06-1.66-0.35-0.47-0.83-1.03-1.07-1.24-0.24-0.22-0.66-0.54-0.92-0.72-0.27-0.18-0.8-0.48-1.18-0.66s-1.11-0.43-1.61-0.55c-0.5-0.13-1.36-0.28-1.9-0.34-0.54-0.05-1.35-0.08-1.8-0.05-0.48 0.03-1.18 0.14-1.65 0.26-0.45 0.11-1.19 0.39-1.64 0.61-0.46 0.22-1.07 0.59-1.36 0.81-0.3 0.23-0.8 0.69-1.13 1.04s-0.76 0.89-0.96 1.2c-0.21 0.3-0.52 0.85-0.7 1.2-0.18 0.36-0.44 0.94-0.58 1.3s-0.36 1.06-0.49 1.56-0.29 1.26-0.36 1.69-0.17 1.16-0.21 1.63c-0.05 0.47-0.09 1.21-0.09 1.64 0 0.44-0.06 1.05-0.12 1.37-0.07 0.32-0.23 0.8-0.37 1.07-0.13 0.27-0.39 0.67-0.57 0.89s-0.51 0.54-0.73 0.71c-0.21 0.17-0.58 0.41-0.82 0.52-0.23 0.12-0.66 0.27-0.94 0.34-0.28 0.06-1.03 0.14-1.67 0.16-0.63 0.03-1.53 0.11-1.99 0.18-0.47 0.07-1.17 0.21-1.56 0.33-0.38 0.11-0.97 0.33-1.3 0.48s-0.81 0.42-1.08 0.59c-0.26 0.17-0.74 0.57-1.07 0.88-0.33 0.32-0.79 0.83-1.03 1.15-0.24 0.33-0.6 0.85-0.79 1.18-0.18 0.33-0.5 0.99-0.7 1.48-0.19 0.48-0.47 1.33-0.61 1.87s-0.31 1.34-0.38 1.77c-0.08 0.44-0.16 1.65-0.2 2.79-0.06 1.8-0.09 2.06-0.25 2.5-0.11 0.28-0.31 0.68-0.45 0.91-0.15 0.22-0.49 0.62-0.77 0.88-0.31 0.28-0.77 0.6-1.19 0.8-0.37 0.18-0.96 0.38-1.31 0.45-0.51 0.1-0.78 0.12-1.29 0.05-0.35-0.04-0.85-0.16-1.12-0.26s-0.67-0.3-0.9-0.44c-0.22-0.15-0.57-0.42-0.76-0.61-0.2-0.19-0.5-0.57-0.68-0.85s-0.43-0.8-0.55-1.16l-0.22-0.67 0.01-1.81c0-1.09 0.06-2.29 0.14-3.04 0.08-0.67 0.25-1.77 0.38-2.42 0.13-0.66 0.37-1.64 0.52-2.19 0.16-0.55 0.43-1.36 0.59-1.81 0.17-0.44 0.48-1.18 0.7-1.65 0.22-0.46 0.65-1.27 0.97-1.8 0.31-0.54 0.84-1.33 1.18-1.76 0.33-0.44 0.89-1.12 1.24-1.5 0.35-0.39 1-1.01 1.44-1.37 0.44-0.37 1.13-0.89 1.53-1.16 0.41-0.26 1.18-0.71 1.71-0.98s1.38-0.65 1.89-0.84c0.5-0.2 1.4-0.49 1.99-0.66 0.59-0.16 1.27-0.34 1.52-0.4l0.45-0.1 0.03-0.25c0.01-0.14 0.13-0.8 0.27-1.48 0.13-0.67 0.37-1.68 0.53-2.24 0.15-0.56 0.45-1.48 0.66-2.05s0.67-1.61 1.02-2.31c0.35-0.71 0.93-1.73 1.29-2.27s1.01-1.39 1.43-1.89c0.43-0.5 1.06-1.15 1.39-1.45 0.34-0.3 0.93-0.78 1.31-1.07s1.02-0.72 1.42-0.96c0.39-0.24 1.09-0.61 1.56-0.83 0.46-0.22 0.98-0.44 1.15-0.49 0.17-0.06 0.3-0.14 0.3-0.18s-0.07-0.23-0.17-0.42c-0.09-0.2-0.36-0.66-0.58-1.03-0.23-0.37-0.63-0.98-0.91-1.36-0.27-0.37-0.87-1.05-1.33-1.52-0.45-0.47-1.1-1.08-1.44-1.35s-0.99-0.75-1.45-1.05c-0.45-0.3-1.23-0.75-1.72-1s-1.21-0.59-1.6-0.75c-0.38-0.16-1.1-0.42-1.59-0.59-0.5-0.16-1.41-0.42-2.02-0.57-0.62-0.15-1.58-0.35-2.14-0.44-0.56-0.1-1.54-0.23-2.17-0.3-0.64-0.07-2.21-0.16-3.49-0.18-1.46-0.03-2.89-0.01-3.78 0.05-0.79 0.05-1.87 0.15-2.39 0.22-0.52 0.06-1.48 0.21-2.13 0.33-0.66 0.12-1.73 0.36-2.38 0.54-0.66 0.18-1.65 0.49-2.21 0.7s-1.56 0.64-2.22 0.97-1.55 0.83-1.98 1.11-1.1 0.76-1.48 1.07c-0.39 0.31-1.11 0.98-1.61 1.49-0.49 0.51-1.15 1.28-1.45 1.71-0.31 0.43-0.83 1.33-1.17 2-0.34 0.68-0.59 1.25-0.56 1.28 0.04 0.03 0.32 0.16 0.64 0.29s0.93 0.41 1.36 0.63c0.43 0.21 1.11 0.61 1.52 0.87 0.4 0.27 1.1 0.78 1.56 1.14 0.45 0.37 1.21 1.07 1.68 1.56 0.48 0.5 1.11 1.21 1.41 1.6 0.31 0.39 0.85 1.17 1.22 1.73s0.98 1.64 1.36 2.41c0.37 0.77 0.87 1.91 1.1 2.53s0.55 1.62 0.7 2.22c0.15 0.59 0.34 1.42 0.41 1.82 0.07 0.41 0.12 0.93 0.12 1.15 0 0.23-0.05 0.65-0.12 0.94s-0.26 0.79-0.43 1.11c-0.18 0.35-0.5 0.78-0.81 1.08-0.27 0.27-0.71 0.61-0.96 0.76s-0.72 0.37-1.05 0.48l-0.61 0.21-0.9-0.04c-0.5-0.03-1.11-0.11-1.36-0.19-0.24-0.07-0.67-0.25-0.94-0.39s-0.73-0.5-1.03-0.79c-0.33-0.34-0.65-0.76-0.85-1.14-0.19-0.37-0.4-0.97-0.55-1.56-0.13-0.53-0.37-1.35-0.53-1.83-0.16-0.47-0.58-1.45-0.94-2.17-0.45-0.9-0.86-1.59-1.31-2.19-0.36-0.48-0.95-1.14-1.31-1.48-0.36-0.33-0.95-0.78-1.31-1s-0.88-0.48-1.15-0.59-0.72-0.26-1.01-0.34c-0.42-0.12-0.85-0.15-2.17-0.15-1.24 0-1.82 0.04-2.38 0.15-0.4 0.08-1.07 0.26-1.48 0.39s-1.07 0.4-1.47 0.61c-0.4 0.2-0.97 0.54-1.27 0.76-0.3 0.21-0.86 0.7-1.25 1.09-0.38 0.38-0.93 1.05-1.22 1.48-0.28 0.42-0.69 1.14-0.91 1.6-0.22 0.45-0.52 1.16-0.66 1.59-0.15 0.43-0.24 0.79-0.19 0.82 0.04 0.04 0.31 0.13 0.6 0.21s0.88 0.27 1.31 0.43c0.44 0.16 1.19 0.5 1.69 0.75 0.5 0.24 1.22 0.65 1.6 0.9 0.39 0.25 0.94 0.64 1.24 0.87 0.29 0.23 0.78 0.64 1.09 0.91 0.3 0.28 0.88 0.87 1.27 1.32 0.4 0.46 0.89 1.05 1.1 1.32s0.58 0.81 0.82 1.19c0.25 0.38 0.64 1.05 0.87 1.48s0.58 1.17 0.79 1.65c0.2 0.47 0.53 1.38 0.74 2.01 0.2 0.63 0.48 1.67 0.62 2.31 0.14 0.63 0.33 1.74 0.42 2.46 0.09 0.71 0.19 2.04 0.22 2.95 0.03 1.36 0.02 1.74-0.09 2.21-0.08 0.32-0.27 0.85-0.44 1.18-0.18 0.37-0.5 0.82-0.85 1.19-0.3 0.33-0.76 0.72-1.01 0.87-0.26 0.15-0.71 0.37-1.02 0.48-0.42 0.15-0.72 0.2-1.29 0.21-0.6 0-0.86-0.04-1.4-0.22-0.36-0.12-0.89-0.38-1.17-0.56-0.29-0.19-0.7-0.54-0.92-0.78-0.22-0.25-0.51-0.67-0.65-0.93-0.14-0.27-0.33-0.77-0.42-1.12-0.1-0.39-0.16-0.9-0.16-1.34 0-0.38-0.04-1.2-0.09-1.81-0.04-0.61-0.14-1.44-0.21-1.85s-0.22-1.11-0.33-1.56c-0.12-0.45-0.33-1.14-0.48-1.52-0.15-0.39-0.41-0.98-0.58-1.32-0.17-0.33-0.49-0.89-0.72-1.22-0.23-0.34-0.73-0.94-1.11-1.34-0.39-0.4-0.95-0.89-1.24-1.08-0.3-0.2-0.73-0.45-0.95-0.56-0.23-0.12-0.69-0.3-1.03-0.42s-0.98-0.29-1.44-0.38c-0.45-0.09-1.39-0.2-2.09-0.25-0.88-0.06-1.61-0.06-2.33 0-0.57 0.05-1.4 0.18-1.83 0.29-0.44 0.11-1.07 0.33-1.4 0.49-0.34 0.15-0.86 0.45-1.17 0.65-0.31 0.21-0.78 0.61-1.05 0.9-0.27 0.28-0.67 0.78-0.88 1.1s-0.55 0.93-0.74 1.35c-0.2 0.42-0.49 1.19-0.66 1.71-0.16 0.52-0.36 1.31-0.45 1.76-0.09 0.46-0.21 1.23-0.26 1.73-0.06 0.59-0.08 1.44-0.04 2.46 0.04 1.05 0.03 1.7-0.03 1.97-0.05 0.23-0.21 0.64-0.34 0.93-0.14 0.28-0.45 0.73-0.7 1s-0.69 0.64-0.98 0.82c-0.29 0.19-0.81 0.43-1.16 0.55s-0.9 0.23-1.22 0.26c-0.4 0.03-0.79 0-1.22-0.1-0.34-0.08-0.85-0.25-1.14-0.39-0.35-0.18-0.73-0.47-1.18-0.92-0.46-0.47-0.73-0.82-0.91-1.21-0.15-0.29-0.32-0.78-0.4-1.07-0.12-0.45-0.13-0.83-0.1-2.7 0.03-1.58 0.09-2.52 0.22-3.44 0.1-0.7 0.27-1.71 0.38-2.25 0.12-0.54 0.34-1.43 0.5-1.98s0.45-1.4 0.64-1.9c0.2-0.5 0.58-1.35 0.85-1.89s0.75-1.37 1.06-1.85c0.32-0.47 0.8-1.14 1.07-1.48 0.28-0.33 0.83-0.95 1.23-1.36s0.97-0.94 1.26-1.18c0.29-0.25 0.87-0.66 1.27-0.93 0.41-0.27 1.06-0.64 1.44-0.84 0.38-0.19 1.07-0.49 1.52-0.66s1.3-0.43 1.89-0.57c0.59-0.15 1.35-0.32 1.69-0.37l0.62-0.1 0.19-0.83c0.1-0.46 0.38-1.43 0.62-2.15 0.23-0.72 0.64-1.79 0.9-2.36 0.26-0.58 0.74-1.51 1.07-2.07 0.33-0.57 0.88-1.41 1.22-1.87 0.34-0.47 0.95-1.22 1.35-1.68 0.41-0.45 1.16-1.19 1.67-1.63 0.52-0.44 1.4-1.11 1.97-1.48 0.56-0.37 1.44-0.89 1.95-1.14 0.51-0.26 1.21-0.58 1.56-0.72s0.97-0.36 1.37-0.49c0.41-0.12 1.04-0.3 1.4-0.39s0.87-0.21 1.12-0.26l0.47-0.09 0.17-0.59c0.1-0.33 0.33-1 0.51-1.5 0.18-0.49 0.52-1.3 0.74-1.79 0.23-0.49 0.59-1.23 0.82-1.64s0.57-0.99 0.75-1.29c0.19-0.29 0.6-0.9 0.92-1.35 0.32-0.44 0.86-1.14 1.2-1.56 0.35-0.41 1.13-1.23 1.73-1.82s1.47-1.37 1.92-1.72c0.45-0.36 1.21-0.92 1.68-1.24 0.48-0.32 1.23-0.8 1.68-1.06 0.44-0.26 1.37-0.74 2.05-1.07s1.78-0.8 2.44-1.05c0.65-0.25 1.62-0.59 2.16-0.75 0.53-0.16 1.4-0.4 1.93-0.53 0.53-0.14 1.42-0.34 1.98-0.45 0.57-0.11 1.53-0.28 2.14-0.37s1.37-0.19 1.68-0.22c0.32-0.02 0.68-0.07 0.8-0.09l0.23-0.04v-13.87zm177.28 1.86l-20.33 65.07h13.9l3.49-13.32h17.92l3.48 13.32h14.03l-20.46-65.07h-12.03zm190.02 4.83v11.89h-5.59v9.52h5.59v25.69c0.09 9.36 4.21 14.03 12.38 14.03 2.5 0 4.82-0.4 6.97-1.2l0.09-9.83c-0.78 0.2-1.78 0.31-3 0.31-1.49 0-2.5-0.36-3.04-1.07-0.5-0.72-0.76-2.03-0.76-3.94v-23.99h6.48v-9.52h-6.48v-11.89h-12.64zm-131.03 10.99c-4.61 0-8.35 1.89-11.21 5.68l-0.36-4.78h-11.89v48.35h12.69v-35.12c1.28-2.36 3.07-3.54 5.36-3.54 2.06 0 3.49 0.63 4.3 1.88 0.83 1.22 1.25 3.2 1.25 5.94v30.84h12.69v-31.77c-0.24-11.65-4.52-17.48-12.83-17.48zm39.15 0c-5.12 0-9.37 1.46-12.74 4.38-3.33 2.89-5 6.57-5 11.04h12.64c0-3.69 1.58-5.54 4.74-5.54 1.43 0 2.52 0.45 3.26 1.34 0.75 0.9 1.12 2.43 1.12 4.6v3.89h-3.84c-6.08 0.06-10.74 1.48-13.99 4.25-3.22 2.77-4.83 6.69-4.83 11.75 0 4.26 1.33 7.73 3.98 10.41 2.68 2.68 6.05 4.02 10.1 4.02 3.87 0 6.94-1.54 9.21-4.64 0.35 1.75 0.71 3 1.07 3.75h12.73v-0.76c-1.13-2.35-1.72-5.62-1.78-9.79v-22.74c0-5.13-1.46-9.06-4.38-11.8-2.89-2.77-6.99-4.16-12.29-4.16zm158.59 0c-6.31 0-11.09 2-14.34 5.99-3.22 3.99-4.83 9.79-4.83 17.39v3.84c0.06 7.54 1.73 13.24 5.01 17.11 3.28 3.88 8.03 5.81 14.25 5.81 5.04 0 9.15-1.62 12.34-4.87 3.18-3.25 4.81-7.51 4.87-12.78h-11.89c-0.06 4.77-1.92 7.15-5.58 7.15-1.64 0-2.91-0.36-3.8-1.07-0.9-0.75-1.54-1.89-1.92-3.44-0.39-1.58-0.59-4.34-0.59-8.27v-4.91c0.06-4.5 0.57-7.53 1.52-9.08 0.96-1.58 2.54-2.37 4.74-2.37 2 0 3.43 0.74 4.29 2.2 0.87 1.46 1.31 3.54 1.34 6.25h11.89c-0.06-6.05-1.62-10.71-4.69-13.99-3.07-3.3-7.27-4.96-12.61-4.96zm40.58 0c-5.03 0-9.09 1.39-12.16 4.16-3.03 2.74-4.55 6.23-4.55 10.46 0 3.36 0.97 6.18 2.9 8.44 1.97 2.27 5.56 4.46 10.77 6.57 3.55 1.55 5.83 2.79 6.84 3.71 1.04 0.89 1.56 1.88 1.56 2.95 0 3.07-1.7 4.6-5.09 4.6-2.21 0-3.8-0.55-4.78-1.65-0.96-1.1-1.46-2.76-1.52-4.96h-12.02c0 2.86 0.76 5.53 2.28 8 1.54 2.47 3.68 4.41 6.39 5.81 2.71 1.37 5.84 2.05 9.38 2.05 5.27 0 9.53-1.31 12.78-3.93s4.87-6.09 4.87-10.41c0-3.72-1.07-6.75-3.22-9.07-2.11-2.36-5.75-4.49-10.9-6.39-3.54-1.52-5.79-2.69-6.75-3.49-0.95-0.83-1.43-1.79-1.43-2.86 0-1.49 0.44-2.65 1.3-3.49 0.86-0.83 1.97-1.25 3.31-1.25 3.27 0 4.91 1.97 4.91 5.9h12.65c0-4.61-1.59-8.29-4.78-11.03s-7.44-4.12-12.74-4.12zm-154.17 0.9l13.94 48.84-0.98 3.26c-0.51 1.88-1.27 3.19-2.28 3.94-0.98 0.77-2.46 1.16-4.42 1.16l-1.48-0.05v9.88c1.94 0.56 3.66 0.85 5.18 0.85 6.59 0 11.07-4.1 13.46-12.29l15.9-55.59h-13.49l-6.44 27.3-5.81-27.3h-13.58zm73.46 0v48.35h12.7v-48.35h-12.7zm-210.61 0.89l6.08 23.19h-12.16l6.08-23.19zm93.13 25.52h3.04v10.05c-0.48 0.78-1.21 1.45-2.19 2.01-0.98 0.57-2.17 0.85-3.57 0.85-2.81 0-4.2-1.79-4.2-5.36 0-2.29 0.61-4.13 1.83-5.5 1.25-1.37 2.95-2.05 5.09-2.05z" /></svg>